<?xml version="1.0" encoding="utf-8"?>
<svg viewBox="26.872 27.397 74.788 44.039" xmlns="http://www.w3.org/2000/svg">
  <path d="M 1.411 -6.711 Q 5.557 -9.959 8.207 -12.31 Q 10.857 -14.661 12.652 -17.161 Q 14.447 -19.662 14.447 -21.927 Q 14.447 -23.295 13.827 -24.064 Q 13.208 -24.834 12.011 -24.834 Q 10.771 -24.834 10.087 -23.787 Q 9.403 -22.739 9.446 -20.73 L 1.325 -20.73 Q 1.453 -24.535 2.992 -27.035 Q 4.531 -29.535 7.01 -30.711 Q 9.489 -31.886 12.524 -31.886 Q 17.781 -31.886 20.346 -29.279 Q 22.91 -26.672 22.91 -22.526 Q 22.91 -18.08 19.94 -14.191 Q 16.969 -10.301 12.524 -7.224 L 23.21 -7.224 L 23.21 -0.427 L 1.411 -0.427 L 1.411 -6.711 Z" transform="matrix(0.584886, 0, 0, 0.58489, 26.871592, 53.824898)" style="fill: rgb(255, 255, 255); line-height: 68.3889px; white-space: pre;"/>
  <path d="M 26.486 -5.129 L 26.486 -12.054 L 39.609 -30.775 L 48.798 -30.775 L 48.798 -12.395 L 52.09 -12.395 L 52.09 -5.129 L 48.798 -5.129 L 48.798 0 L 40.335 0 L 40.335 -5.129 Z M 40.976 -21.329 L 35.078 -12.395 L 40.976 -12.395 Z" transform="matrix(0.584886, 0, 0, 0.58489, 26.871592, 53.824898)" style="fill: rgb(255, 255, 255); line-height: 68.3889px; white-space: pre;"/>
  <path d="M 72.004 -24.193 Q 76.108 -24.193 78.523 -21.436 Q 80.938 -18.679 80.938 -13.977 L 80.938 0 L 72.56 0 L 72.56 -12.866 Q 72.56 -14.917 71.491 -16.093 Q 70.423 -17.268 68.628 -17.268 Q 66.747 -17.268 65.678 -16.093 Q 64.61 -14.917 64.61 -12.866 L 64.61 0 L 56.232 0 L 56.232 -31.63 L 64.61 -31.63 L 64.61 -20.559 Q 65.721 -22.184 67.623 -23.188 Q 69.525 -24.193 72.004 -24.193 Z" transform="matrix(0.584886, 0, 0, 0.58489, 26.871592, 53.824898)" style="fill: rgb(255, 255, 255); line-height: 68.3889px; white-space: pre;"/>
  <path d="M 3.36 -8.463 Q 3.719 -9.463 3.873 -10.079 Q 4.026 -10.694 4.026 -11.053 Q 4.026 -11.412 3.911 -11.528 Q 3.796 -11.643 3.667 -11.643 Q 3.385 -11.643 3.052 -11.374 Q 2.718 -11.105 2.385 -10.746 Q 2.052 -10.387 1.795 -10.028 Q 1.539 -9.668 1.436 -9.463 L 0.692 -9.925 Q 1 -10.489 1.552 -11.182 Q 2.103 -11.874 2.795 -12.464 Q 3.488 -13.054 4.232 -13.451 Q 4.975 -13.849 5.642 -13.849 Q 6.283 -13.849 6.604 -13.477 Q 6.924 -13.105 6.924 -12.13 Q 6.924 -11.387 6.476 -10.13 Q 6.027 -8.873 5.309 -6.899 L 4.36 -4.308 Q 4.308 -4.18 4.219 -3.911 Q 4.129 -3.642 4.039 -3.347 Q 3.949 -3.052 3.885 -2.77 Q 3.821 -2.488 3.821 -2.308 Q 3.821 -2.077 3.949 -1.898 Q 4.078 -1.718 4.36 -1.718 Q 4.744 -1.718 5.155 -2.039 Q 5.565 -2.359 5.95 -2.795 Q 6.335 -3.231 6.642 -3.68 Q 6.95 -4.129 7.104 -4.385 L 7.873 -3.949 Q 7.566 -3.334 7.04 -2.59 Q 6.514 -1.846 5.847 -1.218 Q 5.18 -0.59 4.385 -0.167 Q 3.59 0.256 2.744 0.256 Q 2 0.256 1.629 -0.128 Q 1.257 -0.513 1.257 -1.411 Q 1.257 -2.154 1.5 -3.013 Q 1.744 -3.873 2.206 -5.18 Z M 7.13 -18.055 Q 6.488 -18.055 6.014 -18.491 Q 5.539 -18.927 5.539 -19.619 Q 5.539 -20.311 6.001 -20.799 Q 6.463 -21.286 7.13 -21.286 Q 7.848 -21.286 8.309 -20.799 Q 8.771 -20.311 8.771 -19.645 Q 8.771 -18.978 8.284 -18.516 Q 7.796 -18.055 7.13 -18.055 Z" transform="matrix(0.584886, 0, 0, 0.58489, 39.501812, 67.536461)" style="fill: rgb(255, 255, 255); line-height: 41.0334px; white-space: pre;"/>
  <path d="M 19.708 -12.515 Q 19.092 -12.515 18.31 -11.887 Q 17.528 -11.259 16.72 -10.22 Q 15.912 -9.181 15.168 -7.848 Q 14.425 -6.514 13.912 -5.129 L 12.014 0 L 9.757 0 L 11.655 -5.873 Q 12.116 -7.283 12.424 -8.284 Q 12.732 -9.284 12.924 -9.963 Q 13.117 -10.643 13.194 -11.066 Q 13.271 -11.489 13.271 -11.746 Q 13.271 -12.438 12.835 -12.438 Q 12.552 -12.438 12.168 -12.079 Q 11.783 -11.72 11.386 -11.143 Q 10.988 -10.566 10.629 -9.822 Q 10.27 -9.079 10.013 -8.309 L 9.244 -8.694 Q 10.142 -11.335 11.257 -12.592 Q 12.373 -13.849 13.809 -13.849 Q 14.63 -13.849 14.976 -13.387 Q 15.322 -12.925 15.322 -11.823 Q 15.322 -10.515 14.886 -9.489 L 14.963 -9.412 Q 16.271 -11.72 17.617 -12.784 Q 18.964 -13.849 20.554 -13.849 Q 21.682 -13.849 22.272 -13.31 Q 22.862 -12.772 22.862 -11.771 Q 22.862 -11.438 22.798 -11.028 Q 22.734 -10.617 22.58 -10.04 Q 22.426 -9.463 22.157 -8.668 Q 21.887 -7.873 21.503 -6.719 Q 20.913 -4.975 20.528 -3.796 Q 20.144 -2.616 20.144 -2.129 Q 20.144 -1.744 20.4 -1.744 Q 20.759 -1.744 21.452 -2.334 Q 22.144 -2.924 23.324 -4.232 L 23.99 -3.873 Q 23.58 -3.103 22.926 -2.372 Q 22.272 -1.641 21.567 -1.051 Q 20.862 -0.462 20.169 -0.103 Q 19.477 0.256 18.964 0.256 Q 18.323 0.256 17.951 -0.308 Q 17.579 -0.872 17.579 -1.795 Q 17.579 -2.154 17.643 -2.526 Q 17.707 -2.898 17.912 -3.59 Q 18.118 -4.283 18.515 -5.45 Q 18.913 -6.617 19.605 -8.54 Q 19.836 -9.207 19.99 -9.668 Q 20.144 -10.13 20.233 -10.476 Q 20.323 -10.823 20.362 -11.079 Q 20.4 -11.335 20.4 -11.566 Q 20.4 -12.515 19.708 -12.515 Z" transform="matrix(0.584886, 0, 0, 0.58489, 39.501812, 67.536461)" style="fill: rgb(255, 255, 255); line-height: 41.0334px; white-space: pre;"/>
  <path d="M 40.92 -4.308 Q 40.766 -3.719 40.638 -3.295 Q 40.51 -2.872 40.51 -2.513 Q 40.51 -1.693 41.176 -1.359 Q 41.843 -1.026 43.459 -1.026 L 43.151 0 L 34.226 0 L 34.508 -1.026 Q 35.278 -1.026 35.842 -1.128 Q 36.406 -1.231 36.855 -1.539 Q 37.304 -1.846 37.624 -2.449 Q 37.945 -3.052 38.227 -4.052 L 41.356 -15.747 Q 41.587 -16.67 41.587 -17.285 Q 41.587 -18.029 41.253 -18.35 Q 40.92 -18.67 40.176 -18.67 Q 37.919 -18.67 36.265 -17.516 Q 34.611 -16.362 33.508 -14.285 L 32.482 -14.285 L 34.919 -19.747 L 52.05 -19.747 L 51.537 -14.285 L 50.563 -14.285 Q 50.563 -16.747 49.652 -17.708 Q 48.742 -18.67 46.947 -18.67 Q 46.306 -18.67 45.857 -18.542 Q 45.408 -18.414 45.062 -18.08 Q 44.716 -17.747 44.446 -17.157 Q 44.177 -16.567 43.946 -15.644 Z" transform="matrix(0.584886, 0, 0, 0.58489, 39.501812, 67.536461)" style="fill: rgb(255, 255, 255); line-height: 41.0334px; white-space: pre;"/>
  <path d="M 56.375 -12.515 Q 55.401 -12.515 54.362 -11.618 Q 53.323 -10.72 52.477 -9.374 Q 51.631 -8.027 51.092 -6.476 Q 50.554 -4.924 50.554 -3.59 Q 50.554 -2.667 50.938 -2.116 Q 51.323 -1.564 51.99 -1.564 Q 52.58 -1.564 53.221 -2.039 Q 53.862 -2.513 54.465 -3.295 Q 55.067 -4.078 55.606 -5.078 Q 56.144 -6.078 56.555 -7.142 Q 56.965 -8.207 57.196 -9.232 Q 57.427 -10.258 57.427 -11.079 Q 57.427 -11.746 57.145 -12.13 Q 56.863 -12.515 56.375 -12.515 Z M 59.017 -13.592 L 61.145 -13.592 L 59.684 -9.668 Q 59.325 -8.694 58.978 -7.591 Q 58.632 -6.488 58.363 -5.463 Q 58.094 -4.437 57.94 -3.59 Q 57.786 -2.744 57.786 -2.334 Q 57.786 -1.59 58.273 -1.59 Q 58.632 -1.59 59.312 -2.334 Q 59.991 -3.077 60.838 -4.257 L 61.504 -3.719 Q 60.427 -1.821 59.183 -0.782 Q 57.94 0.256 56.786 0.256 Q 56.196 0.256 55.875 -0.192 Q 55.555 -0.641 55.555 -1.667 Q 55.555 -1.898 55.567 -2.206 Q 55.58 -2.513 55.632 -3.026 L 55.529 -3.052 Q 55.144 -2.334 54.619 -1.731 Q 54.093 -1.128 53.477 -0.68 Q 52.862 -0.231 52.195 0.013 Q 51.528 0.256 50.887 0.256 Q 49.579 0.256 48.848 -0.731 Q 48.117 -1.718 48.117 -3.462 Q 48.117 -5.232 48.861 -7.078 Q 49.605 -8.925 50.784 -10.425 Q 51.964 -11.925 53.4 -12.887 Q 54.837 -13.849 56.221 -13.849 Q 57.068 -13.849 57.606 -13.451 Q 58.145 -13.054 58.478 -12.156 Z" transform="matrix(0.584886, 0, 0, 0.58489, 39.501812, 67.536461)" style="fill: rgb(255, 255, 255); line-height: 41.0334px; white-space: pre;"/>
  <path d="M 65.828 -8.463 Q 66.187 -9.463 66.341 -10.079 Q 66.495 -10.694 66.495 -11.053 Q 66.495 -11.412 66.38 -11.528 Q 66.264 -11.643 66.136 -11.643 Q 65.854 -11.643 65.52 -11.374 Q 65.187 -11.105 64.854 -10.746 Q 64.52 -10.387 64.264 -10.028 Q 64.007 -9.668 63.905 -9.463 L 63.161 -9.925 Q 63.469 -10.489 64.02 -11.182 Q 64.571 -11.874 65.264 -12.464 Q 65.956 -13.054 66.7 -13.451 Q 67.444 -13.849 68.111 -13.849 Q 68.752 -13.849 69.072 -13.477 Q 69.393 -13.105 69.393 -12.13 Q 69.393 -11.387 68.944 -10.13 Q 68.495 -8.873 67.777 -6.899 L 66.828 -4.308 Q 66.777 -4.18 66.687 -3.911 Q 66.597 -3.642 66.508 -3.347 Q 66.418 -3.052 66.354 -2.77 Q 66.29 -2.488 66.29 -2.308 Q 66.29 -2.077 66.418 -1.898 Q 66.546 -1.718 66.828 -1.718 Q 67.213 -1.718 67.623 -2.039 Q 68.034 -2.359 68.418 -2.795 Q 68.803 -3.231 69.111 -3.68 Q 69.419 -4.129 69.572 -4.385 L 70.342 -3.949 Q 70.034 -3.334 69.508 -2.59 Q 68.983 -1.846 68.316 -1.218 Q 67.649 -0.59 66.854 -0.167 Q 66.059 0.256 65.213 0.256 Q 64.469 0.256 64.097 -0.128 Q 63.725 -0.513 63.725 -1.411 Q 63.725 -2.154 63.969 -3.013 Q 64.212 -3.873 64.674 -5.18 Z M 69.598 -18.055 Q 68.957 -18.055 68.482 -18.491 Q 68.008 -18.927 68.008 -19.619 Q 68.008 -20.311 68.47 -20.799 Q 68.931 -21.286 69.598 -21.286 Q 70.316 -21.286 70.778 -20.799 Q 71.239 -20.311 71.239 -19.645 Q 71.239 -18.978 70.752 -18.516 Q 70.265 -18.055 69.598 -18.055 Z" transform="matrix(0.584886, 0, 0, 0.58489, 39.501812, 67.536461)" style="fill: rgb(255, 255, 255); line-height: 41.0334px; white-space: pre;"/>
  <path d="M 71.681 -9.617 Q 72.63 -10.694 73.81 -11.553 Q 74.989 -12.413 76.297 -12.951 L 77.503 -17.054 L 79.452 -17.054 L 78.554 -13.644 Q 78.965 -13.721 79.362 -13.772 Q 79.76 -13.823 80.17 -13.823 Q 82.35 -13.823 83.555 -12.643 Q 84.761 -11.464 84.761 -9.335 Q 84.761 -7.642 83.953 -6.142 Q 83.145 -4.642 81.798 -3.462 Q 80.452 -2.282 78.695 -1.5 Q 76.939 -0.718 75.041 -0.462 L 74.092 3.103 Q 73.964 3.488 73.925 3.744 Q 73.887 4.001 73.887 4.206 Q 73.887 4.847 74.412 5.104 Q 74.938 5.36 76.272 5.386 L 76.118 6.411 L 68.86 6.411 L 69.014 5.386 Q 70.091 5.386 70.578 5.129 Q 71.066 4.873 71.271 4.206 L 75.913 -11.643 Q 74.938 -11.13 74.041 -10.425 Q 73.143 -9.72 72.374 -8.899 Z M 79.503 -12.566 Q 79.17 -12.566 78.849 -12.528 Q 78.529 -12.49 78.221 -12.438 L 75.323 -1.564 Q 76.605 -1.821 77.823 -2.513 Q 79.041 -3.206 79.99 -4.232 Q 80.939 -5.257 81.516 -6.527 Q 82.093 -7.796 82.093 -9.181 Q 82.093 -10.72 81.388 -11.643 Q 80.683 -12.566 79.503 -12.566 Z" transform="matrix(0.584886, 0, 0, 0.58489, 39.501812, 67.536461)" style="fill: rgb(255, 255, 255); line-height: 41.0334px; white-space: pre;"/>
  <path d="M 95.241 -3.411 Q 93.009 0.256 89.752 0.256 Q 87.983 0.256 87.034 -0.833 Q 86.085 -1.923 86.085 -3.924 Q 86.085 -5.693 86.816 -7.463 Q 87.547 -9.232 88.727 -10.656 Q 89.906 -12.079 91.368 -12.964 Q 92.83 -13.849 94.292 -13.849 Q 95.523 -13.849 96.305 -13.22 Q 97.087 -12.592 97.087 -11.618 Q 97.087 -10.72 96.42 -9.771 Q 95.753 -8.822 94.612 -7.976 Q 93.471 -7.13 91.945 -6.437 Q 90.419 -5.745 88.701 -5.36 Q 88.65 -5.001 88.624 -4.655 Q 88.598 -4.308 88.598 -3.949 Q 88.598 -1.154 90.573 -1.154 Q 91.522 -1.154 92.535 -1.898 Q 93.548 -2.642 94.42 -3.949 Z M 93.779 -12.643 Q 93.112 -12.643 92.394 -12.13 Q 91.676 -11.618 91.022 -10.758 Q 90.368 -9.899 89.829 -8.797 Q 89.291 -7.694 88.957 -6.514 Q 90.188 -6.847 91.24 -7.386 Q 92.291 -7.925 93.048 -8.604 Q 93.804 -9.284 94.24 -10.04 Q 94.676 -10.797 94.676 -11.566 Q 94.676 -12.643 93.779 -12.643 Z" transform="matrix(0.584886, 0, 0, 0.58489, 39.501812, 67.536461)" style="fill: rgb(255, 255, 255); line-height: 41.0334px; white-space: pre;"/>
  <path d="M 100.784 -8.463 Q 101.143 -9.463 101.296 -10.079 Q 101.45 -10.694 101.45 -11.053 Q 101.45 -11.412 101.335 -11.528 Q 101.22 -11.643 101.091 -11.643 Q 100.809 -11.643 100.476 -11.374 Q 100.142 -11.105 99.809 -10.746 Q 99.476 -10.387 99.219 -10.028 Q 98.963 -9.668 98.86 -9.463 L 98.116 -9.925 Q 98.424 -10.489 98.976 -11.182 Q 99.527 -11.874 100.219 -12.464 Q 100.912 -13.054 101.656 -13.451 Q 102.399 -13.849 103.066 -13.849 Q 103.707 -13.849 104.028 -13.477 Q 104.348 -13.105 104.348 -12.13 Q 104.348 -11.387 103.9 -10.13 Q 103.451 -8.873 102.733 -6.899 L 101.784 -4.308 Q 101.732 -4.18 101.643 -3.911 Q 101.553 -3.642 101.463 -3.347 Q 101.373 -3.052 101.309 -2.77 Q 101.245 -2.488 101.245 -2.308 Q 101.245 -2.077 101.373 -1.898 Q 101.502 -1.718 101.784 -1.718 Q 102.168 -1.718 102.579 -2.039 Q 102.989 -2.359 103.374 -2.795 Q 103.758 -3.231 104.066 -3.68 Q 104.374 -4.129 104.528 -4.385 L 105.297 -3.949 Q 104.989 -3.334 104.464 -2.59 Q 103.938 -1.846 103.271 -1.218 Q 102.604 -0.59 101.809 -0.167 Q 101.014 0.256 100.168 0.256 Q 99.424 0.256 99.052 -0.128 Q 98.681 -0.513 98.681 -1.411 Q 98.681 -2.154 98.924 -3.013 Q 99.168 -3.873 99.63 -5.18 Z M 104.554 -18.055 Q 103.912 -18.055 103.438 -18.491 Q 102.963 -18.927 102.963 -19.619 Q 102.963 -20.311 103.425 -20.799 Q 103.887 -21.286 104.554 -21.286 Q 105.272 -21.286 105.733 -20.799 Q 106.195 -20.311 106.195 -19.645 Q 106.195 -18.978 105.708 -18.516 Q 105.22 -18.055 104.554 -18.055 Z" transform="matrix(0.584886, 0, 0, 0.58489, 39.501812, 67.536461)" style="fill: rgb(255, 255, 255); line-height: 41.0334px; white-space: pre;"/>
</svg>